<svg version="1.0" xmlns="http://www.w3.org/2000/svg"
 width="1000.000000pt" height="1000.000000pt" viewBox="0 0 1000.000000 1000.000000"
 preserveAspectRatio="xMidYMid meet">
<g transform="translate(0.000000,1000.000000) scale(0.100000,-0.100000)"
fill="#000000" stroke="none">
<path d="M2880 4886 l0 -2323 258 103 c193 78 763 276 920 320 9 3 12 311 12
1499 l0 1495 920 0 920 0 0 -1325 c0 -729 2 -1325 3 -1325 2 0 130 18 283 40
306 44 702 94 832 105 l82 7 0 1864 0 1864 -2115 0 -2115 0 0 -2324z"/>
</g>
</svg>
